<?xml version="1.0" encoding="UTF-8"?>
<svg version="1.1" xmlns="http://www.w3.org/2000/svg" width="512" height="512">
<path d="M0 0 C1.10682381 -0.01058945 1.10682381 -0.01058945 2.23600769 -0.02139282 C33.18538058 -0.25017335 33.18538058 -0.25017335 47.109375 3.203125 C47.94919922 3.40711914 48.78902344 3.61111328 49.65429688 3.82128906 C61.66437703 6.81726766 73.00683434 10.7369211 84.109375 16.203125 C84.80514648 16.54214844 85.50091797 16.88117187 86.21777344 17.23046875 C102.25577696 25.13010783 115.86360246 35.2561291 129.109375 47.203125 C129.85832031 47.87859375 130.60726563 48.5540625 131.37890625 49.25 C162.05458491 78.48873241 179.52456402 122.30468465 181.109375 164.203125 C181.17125 165.71519531 181.17125 165.71519531 181.234375 167.2578125 C181.92065804 200.97146672 172.33836886 233.42859633 154.26171875 261.75 C152.91452038 264.61793417 153.06646682 265.30442193 154.109375 268.203125 C155.98628822 270.33570602 157.86379551 272.30630919 159.89453125 274.28125 C160.47021347 274.85268738 161.04589569 275.42412476 161.63902283 276.01287842 C163.47637819 277.83346302 165.32389632 279.64333068 167.171875 281.453125 C168.42060638 282.68680753 169.66866169 283.92117478 170.91601562 285.15625 C173.9726852 288.17987155 177.03851026 291.19392421 180.109375 294.203125 C181.01945312 293.55730469 181.92953125 292.91148437 182.8671875 292.24609375 C186.0973001 290.21073364 188.23669458 289.40576607 192.07556057 289.64707661 C200.67676314 291.99866031 209.35404485 304.30784632 215.57788086 310.54223633 C216.92696842 311.88996704 218.27626822 313.23748532 219.62576294 314.58480835 C223.27013667 318.22464409 226.91136552 321.86761046 230.5518806 325.51130509 C234.36557051 329.3275343 238.18170813 333.14131461 241.99745178 336.95549011 C248.39699156 343.35321411 254.79442742 349.75303625 261.19067383 356.15405273 C268.59158836 363.56042271 275.99611732 370.96316453 283.40250677 378.36405927 C289.76455533 384.7215765 296.12466149 391.08103199 302.48313433 397.4421255 C306.27982939 401.24038142 310.07720136 405.03795396 313.87632561 408.83378029 C317.44168134 412.39625656 321.00459952 415.96115256 324.56561661 419.52796555 C325.87533855 420.83901408 327.18592023 422.14920435 328.4974041 423.45849037 C330.28121845 425.23958966 332.06195182 427.02371201 333.84190369 428.80867004 C334.3665938 429.33112944 334.89128392 429.85358884 335.43187374 430.39188033 C338.72755113 433.70567834 340.28388752 435.65737968 340.609375 440.328125 C340.50866562 444.19445663 339.87535045 446.00604261 337.24536133 448.83227539 C336.60668121 449.52282013 335.9680011 450.21336487 335.30996704 450.92483521 C331.05740613 455.32754408 326.7669552 459.68857007 322.43359375 464.01171875 C321.41691261 465.029075 320.40037983 466.04657953 319.38398743 467.06422424 C317.27022327 469.17945158 315.15468884 471.29288734 313.0378418 473.4050293 C310.32305979 476.11407072 307.61285165 478.82763698 304.90391827 481.54252529 C302.81341181 483.63663745 300.72053939 485.72837191 298.62693214 487.81938362 C297.62583823 488.81981056 296.62548634 489.82098059 295.62589073 490.82290459 C294.23567574 492.21565092 292.84192304 493.6048633 291.44799805 494.99389648 C290.65636765 495.78473129 289.86473724 496.5755661 289.04911804 497.3903656 C285.76166163 500.46261145 283.01407514 500.76470455 278.6231699 500.63148785 C275.74285927 500.14066894 274.7664198 499.47194262 272.64646912 497.50556946 C271.95340101 496.86438486 271.26033291 496.22320026 270.54626274 495.56258583 C265.19346761 490.37986435 259.90481658 485.13688739 254.64086914 479.86401367 C253.29178158 478.51628296 251.94248178 477.16876468 250.59298706 475.82144165 C246.94861333 472.18160591 243.30738448 468.53863954 239.6668694 464.89494491 C235.85317949 461.0787157 232.03704187 457.26493539 228.22129822 453.45075989 C221.82175844 447.05303589 215.42432258 440.65321375 209.02807617 434.25219727 C201.62716164 426.84582729 194.22263268 419.44308547 186.81624323 412.04219073 C180.45419467 405.6846735 174.09408851 399.32521801 167.73561567 392.9641245 C163.93892061 389.16586858 160.14154864 385.36829604 156.34242439 381.57246971 C152.77706866 378.00999344 149.21415048 374.44509744 145.65313339 370.87828445 C144.34341145 369.56723592 143.03282977 368.25704565 141.7213459 366.94775963 C139.93753155 365.16666034 138.15679818 363.38253799 136.37684631 361.59757996 C135.8521562 361.07512056 135.32746608 360.55266116 134.78687626 360.01436967 C130.82963519 356.03537051 130.00621792 354.12023553 129.68359375 348.46875 C130.30401593 345.16742095 132.22132168 342.93791756 134.109375 340.203125 C130.37492845 336.32047104 126.62127065 332.4578655 122.84838867 328.61254883 C121.56751177 327.30148017 120.29206905 325.98507965 119.0222168 324.66333008 C117.19678668 322.76519638 115.35272622 320.88704228 113.50390625 319.01171875 C112.65672783 318.11808876 112.65672783 318.11808876 111.79243469 317.20640564 C110.00610665 315.35014744 110.00610665 315.35014744 107.109375 313.203125 C102.79013412 313.2682237 100.12958618 315.31846581 96.609375 317.703125 C61.87231864 340.09675238 15.45874555 346.20705894 -24.55419922 337.73486328 C-38.25857434 334.61593653 -51.2742641 330.40036148 -63.890625 324.203125 C-64.5810791 323.86941895 -65.2715332 323.53571289 -65.98291016 323.19189453 C-79.97797383 316.36153922 -92.28716694 307.88037564 -103.6875 297.25390625 C-105.76899344 295.31634587 -107.9068886 293.47623135 -110.078125 291.640625 C-114.08854853 288.11655502 -117.54318302 284.36012109 -120.890625 280.203125 C-121.32391113 279.66574707 -121.75719727 279.12836914 -122.20361328 278.57470703 C-152.29814778 240.87240474 -164.46000308 194.25672309 -159.27734375 146.4765625 C-154.72292324 113.17910779 -139.81531666 82.44201423 -117.890625 57.203125 C-117.28734375 56.47867188 -116.6840625 55.75421875 -116.0625 55.0078125 C-112.03874593 50.24093268 -107.66224251 46.2069909 -102.890625 42.203125 C-102.06304687 41.46449219 -101.23546875 40.72585937 -100.3828125 39.96484375 C-73.4153507 16.4152636 -36.12635299 0.23007566 0 0 Z M-74.890625 47.203125 C-75.86902344 47.88375 -76.84742188 48.564375 -77.85546875 49.265625 C-93.56742677 60.76312704 -106.47578701 74.79618844 -116.890625 91.203125 C-117.27009277 91.78594238 -117.64956055 92.36875977 -118.04052734 92.96923828 C-137.89308717 123.74833126 -143.99238049 164.925994 -136.79711914 200.5847168 C-130.99490756 226.28717606 -118.99787397 249.26635006 -101.890625 269.203125 C-101.09011719 270.18732422 -101.09011719 270.18732422 -100.2734375 271.19140625 C-96.5593378 275.71859265 -92.37833699 279.45557384 -87.890625 283.203125 C-87.065625 283.91597656 -86.240625 284.62882812 -85.390625 285.36328125 C-55.47111694 310.71658531 -16.22103109 322.47033616 22.66796875 319.734375 C62.34217329 316.23971944 98.90073096 297.04636447 124.796875 266.890625 C146.09919982 241.19689713 158.57895192 209.58547849 160.109375 176.203125 C160.150625 175.38585937 160.191875 174.56859375 160.234375 173.7265625 C161.26328741 132.18422406 144.11986137 94.1501617 116.109375 64.203125 C89.74576889 37.49811967 52.60994393 21.42598724 15.14550781 20.91040039 C-17.62784251 20.70093788 -47.74187293 28.2345646 -74.890625 47.203125 Z M136.61889648 284.58007812 C135.99571533 285.20849609 135.37253418 285.83691406 134.73046875 286.484375 C134.05693359 287.16113281 133.38339844 287.83789062 132.68945312 288.53515625 C131.98240234 289.25058594 131.27535156 289.96601563 130.546875 290.703125 C129.83595703 291.41855469 129.12503906 292.13398438 128.39257812 292.87109375 C126.62926903 294.64623713 124.8683266 296.42366545 123.109375 298.203125 C128.21386322 304.38447369 133.79232442 310.00135378 139.484375 315.640625 C140.41121094 316.56294922 141.33804687 317.48527344 142.29296875 318.43554688 C144.56283346 320.69371125 146.83501038 322.94949442 149.109375 325.203125 C153.2507583 321.7223076 157.24728351 318.18617174 161.046875 314.328125 C161.81902344 313.54695313 162.59117187 312.76578125 163.38671875 311.9609375 C163.95519531 311.38085938 164.52367187 310.80078125 165.109375 310.203125 C160.01097756 304.03939079 154.46276742 298.40714799 148.796875 292.765625 C147.87841797 291.84330078 146.95996094 290.92097656 146.01367188 289.97070312 C145.14162109 289.09994141 144.26957031 288.22917969 143.37109375 287.33203125 C142.57662842 286.53869385 141.78216309 285.74535645 140.96362305 284.92797852 C138.7617835 282.68507714 138.7617835 282.68507714 136.61889648 284.58007812 Z M187.61605835 317.45593262 C187.03425812 318.04217407 186.45245789 318.62841553 185.85302734 319.23242188 C185.19249359 319.89310669 184.53195984 320.5537915 183.85140991 321.23449707 C183.13989777 321.95633179 182.42838562 322.6781665 181.6953125 323.421875 C180.96567291 324.15434448 180.23603333 324.88681396 179.48428345 325.64147949 C177.1462646 327.99072724 174.81528039 330.34682118 172.484375 332.703125 C170.90410306 334.29342323 169.32337971 335.88327303 167.7421875 337.47265625 C163.85932308 341.37761696 159.98221791 345.28822639 156.109375 349.203125 C157.68598164 353.01254465 160.08118965 355.4214041 162.98147583 358.31573486 C163.48137807 358.81734595 163.98128031 359.31895704 164.4963311 359.83576846 C166.17138647 361.51411614 167.85348628 363.18521896 169.53564453 364.85644531 C170.73832426 366.05856087 171.94056371 367.26111704 173.14239502 368.46408081 C176.406304 371.72856408 179.67634682 374.98684016 182.94751215 378.24405003 C186.36505258 381.64909586 189.77693766 385.05979868 193.18942261 388.46990967 C199.6523125 394.92658106 206.12028417 401.37813688 212.59008968 407.82787776 C219.95548334 415.17092395 227.3152051 422.51964364 234.67445207 429.86884928 C249.81311647 444.9866033 264.95890206 460.0972057 280.109375 475.203125 C285.42335704 470.72229016 285.42335704 470.72229016 290.47436523 465.95166016 C291.03441757 465.39153229 291.59446991 464.83140442 292.17149353 464.25430298 C293.03599876 463.38205582 293.03599876 463.38205582 293.91796875 462.4921875 C294.52955338 461.87918793 295.141138 461.26618835 295.77125549 460.63461304 C297.69885059 458.70147936 299.62291428 456.76487513 301.546875 454.828125 C302.86369904 453.50627801 304.18075426 452.18466128 305.49804688 450.86328125 C308.70449873 447.64588201 311.90779129 444.42536819 315.109375 441.203125 C309.67785229 434.60334196 303.66692832 428.61229748 297.62792969 422.57641602 C296.46754447 421.41303462 295.3073632 420.24944976 294.14736938 419.0856781 C291.01375095 415.94327005 287.87693761 412.80407057 284.7392416 409.66573453 C282.7791043 407.70488477 280.81968142 405.74332404 278.86051178 403.78150749 C272.02671838 396.93848299 265.19036723 390.09802595 258.3515625 383.26000977 C251.97236251 376.88141254 245.59878309 370.49723677 239.22776484 364.11046845 C233.7552054 358.62486145 228.27882607 353.14308814 222.79941869 347.66432136 C219.52746832 344.39262647 216.25710396 341.11938307 212.99056244 337.84228706 C209.92516737 334.7672559 206.85506873 331.69700208 203.78120041 328.63044167 C202.65149255 327.50178471 201.52350672 326.37140123 200.39733505 325.23921585 C198.86585814 323.70008832 197.32842121 322.1671802 195.78924561 320.63575745 C194.92870953 319.7746766 194.06817345 318.91359575 193.18156052 318.02642155 C190.81796998 315.94672046 190.08733225 315.38267457 187.61605835 317.45593262 Z " fill="#000000" transform="translate(165.890625,5.796875)"/>
<path d="M0 0 C5.46625809 4.27028484 10.64011131 8.80746432 15.6875 13.5625 C16.35136719 14.16191406 17.01523437 14.76132813 17.69921875 15.37890625 C41.66760834 37.88877315 53.3247051 71.04947291 54.8125 103.26953125 C55.59125911 138.84908795 42.03999991 171.82309055 17.6875 197.5625 C16.92824219 198.38621094 16.16898438 199.20992187 15.38671875 200.05859375 C-7.53228831 224.1029203 -40.48886928 236.60517106 -73.32421875 237.55859375 C-104.127069 237.89347352 -135.98844514 228.1402071 -159.3125 207.5625 C-160.53839844 206.51642578 -160.53839844 206.51642578 -161.7890625 205.44921875 C-187.00069209 183.47685426 -202.01720985 154.60302648 -206.3125 121.5625 C-207.24022725 104.62667918 -206.91064699 87.96394295 -202.3125 71.5625 C-202.13058105 70.8926709 -201.94866211 70.2228418 -201.76123047 69.53271484 C-195.99093007 48.84935927 -184.45962842 31.44324022 -170.3125 15.5625 C-169.71824219 14.89476562 -169.12398437 14.22703125 -168.51171875 13.5390625 C-125.84160553 -31.56631773 -49.36804149 -36.11529753 0 0 Z M-146.3125 22.5625 C-147.12203125 23.23925781 -147.9315625 23.91601562 -148.765625 24.61328125 C-168.71764321 41.84178777 -182.47447798 67.21708808 -185.3125 93.5625 C-186.91339957 128.66614679 -178.23098182 156.63956837 -155.13671875 183.05078125 C-135.66390331 203.69709969 -107.49045672 215.49391125 -79.3125 216.5625 C-48.6050882 217.09457558 -21.00320538 205.42424865 1.19799805 184.38671875 C22.04384698 164.08193716 33.4307039 135.54945485 33.8359375 106.5625 C33.39405068 74.95368679 20.18190988 48.11643479 -1.87109375 25.99609375 C-8.44129437 19.75011203 -15.40738561 14.97222044 -23.3125 10.5625 C-24.76269531 9.74458984 -24.76269531 9.74458984 -26.2421875 8.91015625 C-64.53852455 -11.48342161 -113.51543959 -5.50651703 -146.3125 22.5625 Z " fill="#000000" transform="translate(252.3125,69.4375)"/>
<path d="M0 0 C3.28175318 2.52968474 4.69243777 4.07731331 6 8 C6.190681 9.98349693 6.37846546 11.96736678 6.54394531 13.953125 C8.16100343 32.46882366 14.9690868 46.69901606 28 60 C28.59167969 60.62777344 29.18335938 61.25554687 29.79296875 61.90234375 C39.42387452 71.27812618 54.05796378 77.16890083 67.27734375 78.4375 C68.03539307 78.51242676 68.79344238 78.58735352 69.57446289 78.66455078 C71.07294001 78.80162892 72.57374868 78.91577003 74.07592773 79.00341797 C77.95116105 79.32811548 79.87761795 79.90212682 82.9453125 82.35546875 C85.55123087 85.70947395 86 87.7670839 86 92 C84.78196299 95.9586203 83.63518935 97.55248023 80.25 99.9375 C66.99476511 104.54921714 47.65264248 97.84111759 35.47998047 92.19506836 C28.24965271 88.62830256 22.04646935 84.35962647 16 79 C15.37996094 78.51015625 14.75992188 78.0203125 14.12109375 77.515625 C-1.77747494 64.85367768 -12.35258707 42.83523225 -15 23 C-15.25375721 19.9777382 -15.3810429 16.96954004 -15.4375 13.9375 C-15.45981689 13.22311768 -15.48213379 12.50873535 -15.50512695 11.77270508 C-15.48915596 8.1343408 -15.09371965 6.14452455 -13.09765625 3.06640625 C-9.24976536 -0.72416038 -5.20024363 -0.81730945 0 0 Z " fill="#000000" transform="translate(101,166)"/>
</svg>
